<svg xmlns="http://www.w3.org/2000/svg" width="192" height="192" viewBox="0 0 192 192" fill="none"><path d="M91.5 24C92.2425 24 92.985 24 93.75 24C94.1677 25.253 94.5853 26.5059 95.0156 27.7969C96.4427 31.0957 96.7732 31.7032 100.148 33.3516C101.378 33.6068 102.608 33.862 103.875 34.125C123.69 38.4422 142.976 48.2223 160.125 58.875C160.804 59.2907 161.482 59.7063 162.182 60.1346C171.544 66.0048 176.604 72.1143 180.375 82.5C180.819 83.6877 180.819 83.6877 181.271 84.8994C186.422 102.647 181.731 124.323 179.25 142.125C179.13 143.045 179.01 143.965 178.886 144.913C178.581 147.154 178.216 149.386 177.844 151.617C177.652 152.776 177.461 153.935 177.264 155.128C175.255 159.101 172.026 159.897 168 161.25C164.541 162.137 161.057 162.786 157.541 163.408C156.519 163.595 155.496 163.783 154.443 163.976C141.273 166.361 128.06 168.493 114.844 170.602C113.497 170.817 112.15 171.032 110.763 171.254C91.8714 174.27 72.9695 177.217 54.0406 179.987C51.6566 180.337 49.2732 180.69 46.8904 181.048C43.5861 181.542 40.2799 182.02 36.9727 182.493C36.0133 182.639 35.054 182.785 34.0656 182.935C28.1707 183.755 23.119 183.695 17.25 182.625C15.4645 180.839 15.8352 178.921 15.6812 176.438C15.6063 175.303 15.5314 174.169 15.4543 173C15.374 171.721 15.2937 170.442 15.2109 169.125C14.4845 158.151 13.6571 147.191 12.728 136.232C12.6265 135.026 12.5249 133.82 12.4203 132.578C12.0082 127.69 11.5958 122.802 11.17 117.915C10.5867 111.214 10.0435 104.512 9.58305 97.8011C9.45 95.9299 9.30378 94.0595 9.14058 92.1906C8.09972 79.9875 8.09972 79.9875 10.8013 75.7772C13.2017 73.7934 15.5559 72.5809 18.375 71.25C19.5984 70.6018 20.8218 69.9535 22.0823 69.2856C26.357 67.0352 30.6931 64.9209 35.0391 62.8125C40.7452 60.0217 46.4408 57.2103 52.125 54.375C53.344 53.7711 54.563 53.1672 55.8189 52.545C56.9173 51.9786 58.0157 51.4122 59.1475 50.8286C60.0986 50.3443 61.0498 49.8601 62.0297 49.3611C65.8607 46.6687 67.6197 43.0977 69.7427 39.0117C72.2511 34.6239 75.7271 31.8864 80.25 29.625C83.2564 29.4741 86.2378 29.5764 89.25 29.625C89.9925 27.7688 90.735 25.9125 91.5 24Z" fill="#ECDEBD"></path><path d="M165.75 133.125C166.369 142.873 164.491 151.804 162.375 161.25C154.232 164.251 146.259 165.82 137.695 167.139C136.284 167.363 134.874 167.587 133.42 167.817C129.611 168.421 125.801 169.013 121.99 169.603C119.618 169.97 117.247 170.34 114.877 170.711C104.474 172.338 94.0671 173.941 83.6576 175.527C81.4396 175.865 79.2218 176.204 77.0039 176.543C69.171 177.737 61.336 178.914 53.4964 180.064C51.1451 180.41 48.7944 180.759 46.4442 181.112C43.1964 181.598 39.9467 182.068 36.6958 182.533C35.7614 182.675 34.8271 182.817 33.8644 182.964C28.0429 183.773 23.047 183.674 17.25 182.625C16.125 181.5 16.125 181.5 15.9973 178.997C16.0032 177.919 16.0091 176.841 16.0151 175.73C16.0188 174.566 16.0224 173.402 16.0261 172.203C16.0403 170.366 16.0403 170.366 16.0547 168.492C16.0598 167.263 16.0648 166.034 16.0701 164.768C16.0834 161.72 16.1019 158.673 16.125 155.625C23.715 154.237 30.8967 153.078 38.625 153.375C38.625 152.632 38.625 151.89 38.625 151.125C39.8411 150.989 39.8411 150.989 41.0818 150.851C44.7871 150.434 48.4912 150.006 52.1953 149.578C53.4708 149.436 54.7462 149.294 56.0603 149.147C61.1253 148.557 65.9265 147.991 70.8281 146.555C76.1716 145.07 81.4078 144.978 86.9297 144.797C88.021 144.753 89.1122 144.71 90.2366 144.665C92.9075 144.56 95.5785 144.463 98.25 144.375C98.25 143.632 98.25 142.89 98.25 142.125C98.9985 142.029 99.747 141.932 100.518 141.833C103.934 141.393 107.35 140.95 110.766 140.508C112.532 140.28 112.532 140.28 114.334 140.049C118.913 139.454 123.476 138.861 128.027 138.082C132.027 137.44 135.829 137.555 139.875 137.625C139.875 136.882 139.875 136.14 139.875 135.375C148.568 133.99 156.939 132.821 165.75 133.125Z" fill="#D9A842"></path><path d="M145.003 80.9575C146.114 80.9417 147.225 80.926 148.369 80.9097C153.927 80.9446 157.908 81.0506 162.375 84.75C166.523 90.7753 167.395 96.7284 166.875 103.875C161.427 105.559 156.274 106.603 150.584 107.25C149.804 107.341 149.023 107.433 148.218 107.527C145.742 107.816 143.266 108.096 140.789 108.375C138.332 108.655 135.876 108.937 133.42 109.223C131.177 109.484 128.934 109.738 126.691 109.992C122.932 110.452 119.215 111.073 115.485 111.722C108.168 112.962 100.84 113.739 93.4556 114.453C90.613 114.737 87.7705 115.022 84.928 115.307C80.5202 115.744 76.1123 116.179 71.704 116.61C49.5634 118.764 49.5634 118.764 27.6216 122.342C22.8509 123.209 18.699 123.508 13.875 123C8.82697 115.428 10.3231 103.759 10.5 94.875C15.1864 94.0247 19.7786 93.5113 24.5317 93.2271C26.6081 93.0954 26.6081 93.0954 28.7263 92.9612C31.5914 92.7858 34.4566 92.6129 37.322 92.4426C52.3757 92.6242 52.3757 92.6242 65.625 88.125C67.4788 87.8211 69.3438 87.5854 71.2107 87.3777C72.4073 87.2426 73.6039 87.1075 74.8368 86.9684C76.1489 86.8266 77.4611 86.6847 78.813 86.5386C80.8495 86.3162 80.8495 86.3162 82.9272 86.0894C85.8258 85.7755 88.7247 85.4646 91.6239 85.1562C95.9634 84.6912 100.3 84.2058 104.637 83.7195C118.088 82.2546 131.466 81.0633 145.003 80.9575Z" fill="#EEC258"></path><path d="M91.5 24C92.2425 24 92.985 24 93.75 24C94.4113 25.8795 94.4113 25.8795 95.0859 27.7969C96.4779 31.1096 96.8281 31.7162 100.148 33.4922C101.007 33.701 101.865 33.9098 102.75 34.125C102.75 35.61 102.75 37.095 102.75 38.625C105.349 38.9963 107.947 39.3675 110.625 39.75C110.254 40.8638 109.883 41.9775 109.5 43.125C107.18 43.8984 107.18 43.8984 105 44.25C105.406 44.8054 105.812 45.3608 106.23 45.9331C107.014 47.0142 107.014 47.0142 107.812 48.1172C108.335 48.835 108.857 49.5529 109.395 50.2925C110.625 52.125 110.625 52.125 110.625 53.25C108.026 53.25 105.428 53.25 102.75 53.25C102.815 53.9156 102.881 54.5813 102.948 55.2671C103.024 56.6005 103.024 56.6005 103.102 57.9609C103.167 58.8354 103.232 59.7099 103.299 60.6108C102.446 64.9057 100.577 66.3667 97.125 69C93.6964 70.2449 90.2402 70.8648 86.6484 71.4609C85.6585 71.6419 84.6686 71.8229 83.6486 72.0094C75.943 73.3804 68.2076 74.4375 60.4307 75.3062C58.0563 75.5831 55.6871 75.9165 53.3335 76.3345C49.0736 77.0002 44.824 77.2277 40.5234 77.4375C35.3472 77.7113 30.2015 77.994 25.0547 78.6328C20.506 79.1382 16.1942 79.2081 11.625 79.125C11.8837 77.0574 11.8837 77.0574 12.75 74.625C14.8423 73.0891 14.8423 73.0891 17.6104 71.707C18.6423 71.1819 19.6742 70.6567 20.7373 70.1157C21.8604 69.5619 22.9835 69.0081 24.1406 68.4375C25.2891 67.8504 26.4376 67.2632 27.6208 66.6583C33.6649 63.5726 39.748 60.5784 45.8628 57.6357C47.0191 57.0651 48.1755 56.4944 49.3669 55.9065C51.5702 54.82 53.7866 53.7593 56.0169 52.7292C62.9407 49.289 66.3271 45.8586 69.8292 38.94C72.254 34.5624 75.7812 31.8594 80.25 29.625C83.2564 29.4741 86.2378 29.5764 89.25 29.625C89.9925 27.7688 90.735 25.9125 91.5 24Z" fill="#C7BDA6"></path><path d="M144.727 82.1484C145.732 82.1425 146.737 82.1365 147.772 82.1303C152.998 82.1878 157.588 82.4191 162.375 84.75C166.788 90.438 167.38 96.929 166.875 103.875C159.691 106.383 152.714 106.688 145.148 106.969C143.915 107.031 142.682 107.093 141.411 107.158C140.236 107.206 139.06 107.253 137.849 107.303C136.78 107.347 135.711 107.392 134.609 107.438C132 107.25 132 107.25 129.75 105C129.379 105.743 129.008 106.485 128.625 107.25C124.964 104.061 123.539 101.978 123 97.125C121.886 98.7956 121.886 98.7956 120.75 100.5C119.636 100.871 118.522 101.242 117.375 101.625C117.004 102.924 116.633 104.224 116.25 105.562C115.879 106.862 115.508 108.161 115.125 109.5C114.011 109.871 112.897 110.242 111.75 110.625C111.75 109.882 111.75 109.14 111.75 108.375C111.054 108.584 110.358 108.793 109.641 109.008C107.25 109.5 107.25 109.5 105 108.375C105 109.118 105 109.86 105 110.625C97.5469 110.906 97.5469 110.906 93.75 108.375C92.265 109.489 90.78 110.603 89.25 111.75C88.8787 111.007 88.5075 110.265 88.125 109.5C88.8675 109.5 89.61 109.5 90.375 109.5C90.375 108.757 90.375 108.015 90.375 107.25C89.6325 107.25 88.89 107.25 88.125 107.25C88.125 106.507 88.125 105.765 88.125 105C89.2388 105 90.3525 105 91.5 105C92.6843 102.04 92.6843 102.04 92.625 100.5C91.8825 100.5 91.14 100.5 90.375 100.5C89.5312 98.7422 89.5312 98.7422 89.25 96C92.3651 88.773 92.3651 88.773 96.4175 86.877C102.412 85.4059 108.433 84.7177 114.562 84.0469C116.569 83.8268 116.569 83.8268 118.615 83.6022C127.326 82.7113 135.97 82.1739 144.727 82.1484ZM94.875 94.875C93.7612 96.5456 93.7612 96.5456 92.625 98.25C93.7388 98.25 94.8525 98.25 96 98.25C96.3713 97.1362 96.7425 96.0225 97.125 94.875C96.3825 94.875 95.64 94.875 94.875 94.875Z" fill="#EDB948"></path><path d="M103.875 34.125C106.845 34.8675 109.815 35.61 112.875 36.375C112.875 37.1175 112.875 37.86 112.875 38.625C113.541 38.8295 114.206 39.034 114.892 39.2446C119.923 40.8451 124.109 42.6214 128.625 45.375C130.377 46.0462 132.136 46.7006 133.898 47.3438C139.42 49.4752 143.829 52.4484 148.581 55.9395C151.53 58.038 154.595 59.6051 157.875 61.125C158.989 61.8675 160.103 62.61 161.25 63.375C161.25 64.1175 161.25 64.86 161.25 65.625C160.454 65.6473 159.657 65.6696 158.837 65.6926C136.991 66.3313 115.3 67.1986 93.7871 71.289C88.4392 72.2775 83.4413 72.5091 78 72.375C78 72.0037 78 71.6325 78 71.25C79.3284 71.0716 80.6568 70.8933 82.0254 70.7095C83.7775 70.4456 85.5295 70.1804 87.2812 69.9141C88.1557 69.8002 89.0302 69.6864 89.9312 69.5691C94.3745 68.8665 96.5786 68.3873 99.9375 65.2383C101.547 62.3886 102.25 60.6227 102.469 57.3984C102.562 56.0295 102.654 54.6605 102.75 53.25C104.978 52.8787 107.205 52.5075 109.5 52.125C108.757 51.2433 108.015 50.3616 107.25 49.4531C105 46.5 105 46.5 105 44.25C106.079 43.7627 106.079 43.7627 107.18 43.2656C109.671 42.1932 109.671 42.1932 110.625 39.75C108.026 39.3787 105.428 39.0075 102.75 38.625C103.121 37.14 103.492 35.655 103.875 34.125Z" fill="#D0C9B3"></path><path d="M87 33C85.8863 34.1137 84.7725 35.2275 83.625 36.375C86.9663 36.9319 86.9663 36.9319 90.375 37.5C89.6325 39.3562 88.89 41.2125 88.125 43.125C89.61 43.125 91.095 43.125 92.625 43.125C92.625 45.7238 92.625 48.3225 92.625 51C94.5045 50.9652 94.5045 50.9652 96.4219 50.9297C100.5 51 100.5 51 102.75 52.125C102.969 56.8394 102.721 60.291 100.5 64.5C93.791 68.9726 86.1508 68.0811 78.3516 68.0859C77.1617 68.0997 75.9718 68.1135 74.7458 68.1277C73.6111 68.1299 72.4763 68.132 71.3071 68.1343C70.2707 68.1389 69.2343 68.1435 68.1664 68.1483C65.625 67.875 65.625 67.875 63.375 65.625C62.5907 60.135 64.184 56.8386 66.7236 52.1645C68.3808 48.8692 69.2322 45.5712 70.125 42C70.8675 42 71.61 42 72.375 42C72.549 40.399 72.549 40.399 72.7266 38.7656C73.5 35.25 73.5 35.25 76.875 33C84.1804 31.5902 84.1804 31.5902 87 33Z" fill="#E43739"></path><path d="M45.375 92.625C44.6325 93.3675 43.89 94.11 43.125 94.875C39.6094 94.4531 39.6094 94.4531 36.375 93.75C36.2358 94.8173 36.0966 95.8847 35.9531 96.9844C35.25 100.5 35.25 100.5 33 102.75C33 103.492 33 104.235 33 105C33.7425 105 34.485 105 35.25 105C34.8787 106.856 34.5075 108.712 34.125 110.625C35.9812 110.996 37.8375 111.367 39.75 111.75C38.2089 115.306 37.5123 116.242 34.125 118.5C35.2387 119.242 36.3525 119.985 37.5 120.75C29.5804 122.251 21.9462 123.651 13.875 123C8.82696 115.428 10.3231 103.759 10.5 94.875C15.6687 93.9184 20.798 93.421 26.0391 93.1172C27.2224 93.0455 27.2224 93.0455 28.4297 92.9724C34.0911 92.6474 39.7068 92.5238 45.375 92.625ZM42 94.875C42.3712 95.6175 42.7425 96.36 43.125 97.125C42.3825 96.7537 41.64 96.3825 40.875 96C41.2462 95.6287 41.6175 95.2575 42 94.875Z" fill="#EAC664"></path><path d="M125.25 83.625C126.375 87 126.375 87 124.841 90.1641C124.118 91.3474 123.394 92.5308 122.648 93.75C121.933 94.9334 121.219 96.1167 120.482 97.3359C119.104 99.5363 117.69 101.715 116.25 103.875C115.817 105.737 115.431 107.613 115.125 109.5C114.011 109.871 112.897 110.243 111.75 110.625C111.75 109.883 111.75 109.14 111.75 108.375C111.054 108.584 110.358 108.793 109.641 109.008C107.25 109.5 107.25 109.5 105 108.375C105 109.118 105 109.86 105 110.625C97.5469 110.906 97.5469 110.906 93.75 108.375C92.265 109.489 90.78 110.603 89.25 111.75C88.8787 111.008 88.5075 110.265 88.125 109.5C88.8675 109.5 89.61 109.5 90.375 109.5C90.375 108.758 90.375 108.015 90.375 107.25C89.6325 107.25 88.89 107.25 88.125 107.25C88.125 106.508 88.125 105.765 88.125 105C89.2388 105 90.3525 105 91.5 105C92.6843 102.04 92.6843 102.04 92.625 100.5C91.8825 100.5 91.14 100.5 90.375 100.5C89.5312 98.7422 89.5312 98.7422 89.25 96C92.3928 88.7087 92.3928 88.7087 96.7339 86.8418C100.966 85.7554 105.168 85.1061 109.5 84.6094C110.272 84.5122 111.043 84.4151 111.838 84.3149C116.334 83.7744 120.724 83.526 125.25 83.625ZM94.875 94.875C93.7612 96.5456 93.7612 96.5456 92.625 98.25C93.7388 98.25 94.8525 98.25 96 98.25C96.3713 97.1363 96.7425 96.0225 97.125 94.875C96.3825 94.875 95.64 94.875 94.875 94.875Z" fill="#EFC04D"></path><path d="M63.375 91.5C64.4888 91.8713 65.6025 92.2425 66.75 92.625C66.3787 93.7388 66.0075 94.8525 65.625 96C64.14 95.2575 62.655 94.515 61.125 93.75C61.8675 93.0075 62.61 92.265 63.375 91.5ZM48.6797 92.4141C52.125 92.625 52.125 92.625 54.375 94.875C50.5042 97.4555 49.0617 98.25 44.25 98.25C44.25 98.9925 44.25 99.735 44.25 100.5C45.2245 100.256 45.2245 100.256 46.2188 100.008C48.5625 99.4219 50.9063 98.8359 53.25 98.25C53.25 98.9925 53.25 99.735 53.25 100.5C56.5324 98.5341 56.5324 98.5341 58.2422 96.3516C59.1123 95.6207 59.1123 95.6207 60 94.875C62.4609 95.2266 62.4609 95.2266 64.5 96C64.1287 98.5987 63.7575 101.197 63.375 103.875C62.6325 103.504 61.89 103.133 61.125 102.75C60.3825 104.978 59.64 107.205 58.875 109.5C58.1325 109.5 57.39 109.5 56.625 109.5C55.8825 110.985 55.14 112.47 54.375 114C54.0037 113.257 53.6325 112.515 53.25 111.75C52.8787 112.864 52.5075 113.978 52.125 115.125C51.3825 115.125 50.64 115.125 49.875 115.125C49.875 115.868 49.875 116.61 49.875 117.375C47.6475 117.375 45.42 117.375 43.125 117.375C42.9162 116.656 42.7073 115.936 42.4922 115.195C40.9397 112.401 40.9397 112.401 36.7969 112.031C35.5439 111.938 34.2909 111.846 33 111.75C33.5693 109.31 34.1248 107.25 35.25 105C34.5075 105 33.765 105 33 105C32.6287 103.886 32.2575 102.772 31.875 101.625C32.9888 101.254 34.1025 100.883 35.25 100.5C35.6213 98.2725 35.9925 96.045 36.375 93.75C37.6512 93.7732 38.9273 93.7964 40.2422 93.8203C44.6302 93.7433 44.5571 92.6772 48.6797 92.4141ZM42 94.875C41.6287 95.6175 41.2575 96.36 40.875 97.125C41.6175 97.125 42.36 97.125 43.125 97.125C42.7537 96.3825 42.3825 95.64 42 94.875ZM56.625 111.75C59.4094 112.307 59.4094 112.307 62.25 112.875C62.25 113.618 62.25 114.36 62.25 115.125C60.3938 115.868 58.5375 116.61 56.625 117.375C56.625 115.519 56.625 113.663 56.625 111.75Z" fill="#F2C753"></path><path d="M76.875 87C79.845 87 82.815 87 85.875 87C85.875 87.3713 85.875 87.7425 85.875 88.125C83.2763 88.4963 80.6775 88.8675 78 89.25C77.6287 88.5075 77.2575 87.765 76.875 87ZM68.1958 88.0151C69.7424 88.0347 69.7424 88.0347 71.3203 88.0547C72.3543 88.0648 73.3883 88.075 74.4536 88.0854C75.2527 88.0985 76.0517 88.1116 76.875 88.125C77.6175 89.61 78.36 91.095 79.125 92.625C76.5263 92.9963 73.9275 93.3675 71.25 93.75C71.25 94.1213 71.25 94.4925 71.25 94.875C73.1062 94.875 74.9625 94.875 76.875 94.875C76.875 95.6175 76.875 96.36 76.875 97.125C75.7612 97.4963 74.6475 97.8675 73.5 98.25C73.8713 98.9925 74.2425 99.735 74.625 100.5C68.1562 103.875 68.1562 103.875 65.625 103.875C64.5112 104.432 64.5112 104.432 63.375 105C63.1542 100.254 63.5974 96.9336 65.625 92.625C64.9521 92.973 64.2792 93.3211 63.5859 93.6797C61.125 94.875 61.125 94.875 57.75 96C57.75 97.485 57.75 98.97 57.75 100.5C56.265 100.5 54.78 100.5 53.25 100.5C53.25 99.7575 53.25 99.015 53.25 98.25C52.1362 98.9925 51.0225 99.735 49.875 100.5C46.5 101.625 46.5 101.625 44.25 100.5C44.25 99.7575 44.25 99.015 44.25 98.25C45.1317 97.9252 46.0134 97.6003 46.9219 97.2656C49.9838 96.1697 49.9838 96.1697 52.125 93.75C51.3825 93.0075 50.64 92.265 49.875 91.5C51.439 91.2759 51.439 91.2759 53.0347 91.0474C55.0555 90.7493 55.0555 90.7493 57.1172 90.4453C58.4615 90.2495 59.8058 90.0538 61.1909 89.8521C64.4205 89.2645 65.1069 88.1471 68.1958 88.0151ZM61.125 94.875C64.5 96 64.5 96 64.5 96L61.125 94.875ZM76.875 103.875C75.7612 104.618 74.6475 105.36 73.5 106.125C72.7575 105.754 72.015 105.383 71.25 105C71.6213 106.114 71.9925 107.228 72.375 108.375C71.6325 108.375 70.89 108.375 70.125 108.375C69.7537 109.489 69.3825 110.603 69 111.75C67.8862 111.379 66.7725 111.008 65.625 110.625C65.625 109.5 65.625 108.375 65.625 107.25C65.2537 106.507 64.8825 105.765 64.5 105C73.0781 102.609 73.0781 102.609 76.875 103.875ZM63.375 109.5C60 111.75 60 111.75 56.625 111.75C56.625 111.007 56.625 110.265 56.625 109.5C59.4273 108.099 60.4622 108.626 63.375 109.5ZM61.125 110.625C61.8675 110.996 62.61 111.367 63.375 111.75C63.375 112.493 63.375 113.235 63.375 114C64.0928 113.906 64.8107 113.811 65.5503 113.714C66.4799 113.6 67.4094 113.485 68.3672 113.367C69.2939 113.25 70.2205 113.132 71.1753 113.011C71.9424 112.966 72.7096 112.921 73.5 112.875C73.8713 113.246 74.2425 113.617 74.625 114C76.7227 113.733 78.8199 113.461 80.9136 113.165C85.5601 112.668 90.2082 112.789 94.875 112.875C94.875 113.246 94.875 113.617 94.875 114C90.1649 114.57 85.4537 115.13 80.7422 115.688C79.4131 115.848 78.084 116.009 76.7146 116.175C70.3548 116.924 64.1553 117.601 57.75 117.375C58.4925 116.261 59.235 115.147 60 114C60.7425 114.371 61.485 114.742 62.25 115.125C62.25 114.382 62.25 113.64 62.25 112.875C61.5075 112.504 60.765 112.133 60 111.75C60.3713 111.379 60.7425 111.008 61.125 110.625ZM39.75 111.75C41.235 112.864 42.72 113.978 44.25 115.125C43.8787 115.868 43.5075 116.61 43.125 117.375C45.3525 117.375 47.58 117.375 49.875 117.375C49.875 116.632 49.875 115.89 49.875 115.125C50.6175 115.125 51.36 115.125 52.125 115.125C52.125 114.382 52.125 113.64 52.125 112.875C51.3825 112.504 50.64 112.133 49.875 111.75C50.5711 111.959 51.2672 112.168 51.9844 112.383C54.4218 113.141 54.4218 113.141 56.625 111.75C56.625 113.606 56.625 115.462 56.625 117.375C47.9032 119.08 39.637 119.94 30.75 119.625C31.4403 119.119 32.1306 118.613 32.8418 118.091C35.3717 116.157 37.5403 114.039 39.75 111.75Z" fill="#F0C659"></path><path d="M91.5 24C92.2425 24 92.985 24 93.75 24C94.1909 25.253 94.6317 26.5059 95.0859 27.7969C96.4779 31.1096 96.8281 31.7162 100.148 33.4922C101.007 33.701 101.865 33.9098 102.75 34.125C102.75 35.61 102.75 37.095 102.75 38.625C105.349 38.9963 107.947 39.3675 110.625 39.75C110.254 40.8638 109.883 41.9775 109.5 43.125C107.18 43.8984 107.18 43.8984 105 44.25C105.406 44.8054 105.812 45.3608 106.23 45.9331C106.753 46.6539 107.275 47.3746 107.812 48.1172C108.335 48.835 108.857 49.5529 109.395 50.2925C110.625 52.125 110.625 52.125 110.625 53.25C104.288 53.5197 98.7614 52.5585 92.625 51C92.625 48.4013 92.625 45.8025 92.625 43.125C91.14 43.125 89.655 43.125 88.125 43.125C88.8675 41.2688 89.61 39.4125 90.375 37.5C87.7763 37.5 85.1775 37.5 82.5 37.5C83.3585 36.3166 84.217 35.1333 85.1016 33.9141C86.8958 31.4203 88.4888 28.9918 90.0234 26.3203C90.5107 25.5546 90.998 24.7889 91.5 24Z" fill="#7C8F53"></path><path d="M165.75 133.125C166.369 142.873 164.491 151.804 162.375 161.25C161.336 157.831 161.226 155.175 161.632 151.635C161.737 150.685 161.843 149.735 161.951 148.756C162.068 147.775 162.184 146.793 162.305 145.781C162.473 144.282 162.473 144.282 162.645 142.753C162.923 140.293 163.208 137.834 163.5 135.375C161.085 135.721 158.671 136.074 156.258 136.43C154.913 136.625 153.569 136.821 152.184 137.023C149.01 137.276 149.01 137.276 147.75 138.75C145.324 139.072 142.898 139.253 140.459 139.449C137.511 139.802 137.511 139.802 134.391 141.004C130.553 142.228 127.228 142.507 123.211 142.687C117.722 143.01 112.663 143.63 107.342 144.973C104.824 145.54 102.366 145.821 99.7969 146.062C96.5429 146.37 93.6327 146.908 90.5156 147.891C87 148.875 87 148.875 83.625 147.75C80.399 148.182 77.2549 148.689 74.0625 149.297C73.1938 149.453 72.3252 149.61 71.4302 149.771C67.9046 150.419 64.5296 151.115 61.125 152.25C59.2519 152.634 57.3767 153.009 55.5 153.375C53.9976 153.74 52.4967 154.112 51 154.5C51 153.757 51 153.015 51 152.25C50.227 152.52 49.4541 152.789 48.6577 153.067C47.644 153.401 46.6303 153.734 45.5859 154.078C44.581 154.417 43.576 154.757 42.5405 155.106C39.75 155.625 39.75 155.625 36.375 153.375C37.1175 153.375 37.86 153.375 38.625 153.375C38.625 152.632 38.625 151.89 38.625 151.125C39.4357 151.035 40.2465 150.944 41.0818 150.851C44.7871 150.434 48.4912 150.006 52.1953 149.578C53.4708 149.436 54.7462 149.294 56.0603 149.147C61.1253 148.557 65.9265 147.991 70.8281 146.555C76.1716 145.07 81.4078 144.978 86.9297 144.797C88.021 144.753 89.1122 144.71 90.2366 144.665C92.9075 144.56 95.5785 144.463 98.25 144.375C98.25 143.632 98.25 142.89 98.25 142.125C99.3727 141.98 99.3727 141.98 100.518 141.833C103.934 141.393 107.35 140.95 110.766 140.508C112.532 140.28 112.532 140.28 114.334 140.049C118.913 139.454 123.476 138.861 128.027 138.082C132.027 137.44 135.829 137.555 139.875 137.625C139.875 136.882 139.875 136.14 139.875 135.375C148.568 133.99 156.939 132.821 165.75 133.125Z" fill="#E6C471"></path><path d="M93.75 55.5C95.7891 58.2422 95.7891 58.2422 97.125 61.125C96.7538 61.8675 96.3825 62.61 96 63.375C95.2575 63.375 94.515 63.375 93.75 63.375C93.75 64.1175 93.75 64.86 93.75 65.625C90.441 66.728 88.3219 66.8807 84.8774 66.8599C83.8224 66.8562 82.7674 66.8526 81.6804 66.8489C80.5819 66.8395 79.4834 66.83 78.3516 66.8203C76.6842 66.8127 76.6842 66.8127 74.9832 66.8049C72.2387 66.7917 69.4944 66.7732 66.75 66.75C68.2596 62.2213 70.6006 61.2568 74.625 58.875C75.3675 58.875 76.11 58.875 76.875 58.875C77.2463 57.7612 77.6175 56.6475 78 55.5C79.7801 55.2792 81.5616 55.0706 83.3438 54.8672C84.3357 54.7497 85.3276 54.6323 86.3496 54.5112C89.1739 54.3786 91.1166 54.4973 93.75 55.5Z" fill="#DA201F"></path><path d="M121.875 96C122.618 96.3713 123.36 96.7425 124.125 97.125C124.125 98.2388 124.125 99.3525 124.125 100.5C124.868 100.871 125.61 101.242 126.375 101.625C126.375 103.11 126.375 104.595 126.375 106.125C127.118 105.754 127.86 105.383 128.625 105C129.739 105 130.853 105 132 105C132 105.743 132 106.485 132 107.25C133.299 107.064 134.599 106.879 135.938 106.688C140.661 106.089 145.242 106.04 150 106.125C150 106.496 150 106.867 150 107.25C148.828 107.386 148.828 107.386 147.632 107.524C144.015 107.945 140.398 108.371 136.781 108.797C135.553 108.939 134.325 109.081 133.059 109.228C125.805 110.086 118.623 111.12 111.436 112.433C106.663 113.122 101.934 113.067 97.125 112.875C97.125 112.504 97.125 112.133 97.125 111.75C98.7608 111.541 98.7608 111.541 100.43 111.328C101.567 111.096 102.704 110.864 103.875 110.625C104.246 109.882 104.617 109.14 105 108.375C108.76 108.291 111.529 108.301 115.125 109.5C115.496 106.901 115.867 104.303 116.25 101.625C117.735 101.254 119.22 100.883 120.75 100.5C121.121 99.015 121.492 97.53 121.875 96Z" fill="#EEBF56"></path><path d="M76.875 87C79.845 87 82.815 87 85.875 87C85.875 87.3713 85.875 87.7425 85.875 88.125C83.2763 88.4963 80.6775 88.8675 78 89.25C77.6287 88.5075 77.2575 87.765 76.875 87ZM68.1958 88.0151C69.7424 88.0347 69.7424 88.0347 71.3203 88.0547C72.3543 88.0648 73.3883 88.075 74.4536 88.0854C75.2527 88.0985 76.0517 88.1116 76.875 88.125C77.6175 89.61 78.36 91.095 79.125 92.625C77.872 92.7178 76.6191 92.8106 75.3281 92.9062C73.9823 93.1847 72.6366 93.4631 71.25 93.75C69.8716 95.944 69.8716 95.944 69 98.25C66.6094 99.0938 66.6094 99.0938 64.5 99.375C64.8713 97.1475 65.2425 94.92 65.625 92.625C64.9521 92.973 64.2792 93.3211 63.5859 93.6797C61.125 94.875 61.125 94.875 57.75 96C57.75 97.485 57.75 98.97 57.75 100.5C56.265 100.5 54.78 100.5 53.25 100.5C53.25 99.7575 53.25 99.015 53.25 98.25C52.1362 98.9925 51.0225 99.735 49.875 100.5C46.5 101.625 46.5 101.625 44.25 100.5C44.25 99.7575 44.25 99.015 44.25 98.25C45.1317 97.9252 46.0134 97.6003 46.9219 97.2656C49.9838 96.1697 49.9838 96.1697 52.125 93.75C51.3825 93.0075 50.64 92.265 49.875 91.5C51.439 91.2759 51.439 91.2759 53.0347 91.0474C55.0555 90.7493 55.0555 90.7493 57.1172 90.4453C58.4615 90.2495 59.8058 90.0538 61.1909 89.8521C64.4205 89.2645 65.1069 88.1471 68.1958 88.0151ZM61.125 94.875C64.5 96 64.5 96 64.5 96L61.125 94.875Z" fill="#F2C85B"></path><path d="M82.5 37.5C85.0987 37.5 87.6975 37.5 90.375 37.5C89.6325 39.3562 88.89 41.2125 88.125 43.125C89.61 43.125 91.095 43.125 92.625 43.125C92.625 45.7237 92.625 48.3225 92.625 51C94.5044 50.9652 94.5044 50.9652 96.4219 50.9297C100.5 51 100.5 51 102.75 52.125C102.969 56.8394 102.721 60.291 100.5 64.5C95.5293 67.8138 91.1645 68.0177 85.2905 67.9849C84.1412 67.9812 82.992 67.9776 81.8079 67.9739C80.6209 67.9644 79.4339 67.955 78.2109 67.9453C77.0022 67.9402 75.7935 67.9352 74.5481 67.9299C71.5737 67.9167 68.5994 67.8982 65.625 67.875C65.2537 67.1325 64.8825 66.39 64.5 65.625C74.1525 65.625 83.805 65.625 93.75 65.625C93.75 64.8825 93.75 64.14 93.75 63.375C94.4925 63.375 95.235 63.375 96 63.375C95.3522 60.6911 94.6249 58.1248 93.75 55.5C93.0075 55.5 92.265 55.5 91.5 55.5C91.1287 52.1587 90.7575 48.8175 90.375 45.375C89.2612 45.0037 88.1475 44.6325 87 44.25C87 43.1362 87 42.0225 87 40.875C85.515 40.5037 84.03 40.1325 82.5 39.75C82.5 39.0075 82.5 38.265 82.5 37.5Z" fill="#A64F40"></path><path d="M72.375 45.375C73.4423 45.5606 74.5097 45.7462 75.6094 45.9375C78.9019 46.5592 78.9019 46.5592 81.375 46.5C83.0605 50.2923 83.625 52.355 83.625 56.625C82.8129 56.509 82.0008 56.393 81.1641 56.2734C76.7445 56.7645 75.3728 59.0985 72.375 62.25C69.7734 63.1641 69.7734 63.1641 67.875 63.375C67.875 64.1175 67.875 64.86 67.875 65.625C66.7612 65.625 65.6475 65.625 64.5 65.625C65.6272 61.3578 66.5365 58.0702 69 54.375C69.7774 52.1343 70.5289 49.8844 71.25 47.625C71.6213 46.8825 71.9925 46.14 72.375 45.375Z" fill="#DA3C34"></path><path d="M48.6797 92.4141C52.125 92.625 52.125 92.625 54.375 94.875C50.5042 97.4555 49.0617 98.25 44.25 98.25C44.6213 99.3638 44.9925 100.478 45.375 101.625C42.5906 103.296 42.5906 103.296 39.75 105C39.75 103.886 39.75 102.772 39.75 101.625C39.0075 103.11 38.265 104.595 37.5 106.125C38.6138 106.868 39.7275 107.61 40.875 108.375C40.875 109.118 40.875 109.86 40.875 110.625C41.6175 110.996 42.36 111.367 43.125 111.75C39.6725 113.476 36.7114 112.369 33 111.75C33.5693 109.31 34.1248 107.25 35.25 105C34.5075 105 33.765 105 33 105C32.6287 103.886 32.2575 102.772 31.875 101.625C32.9888 101.254 34.1025 100.883 35.25 100.5C35.6213 98.2725 35.9925 96.045 36.375 93.75C37.6512 93.7732 38.9273 93.7964 40.2422 93.8203C44.6302 93.7433 44.5571 92.6772 48.6797 92.4141ZM42 94.875C41.6287 95.6175 41.2575 96.36 40.875 97.125C41.6175 97.125 42.36 97.125 43.125 97.125C42.7537 96.3825 42.3825 95.64 42 94.875ZM43.125 111.75C44.2388 112.121 45.3525 112.492 46.5 112.875C45.015 113.246 43.53 113.617 42 114C42.3713 113.257 42.7425 112.515 43.125 111.75Z" fill="#EDC050"></path><path d="M91.5 24C92.2425 24 92.985 24 93.75 24C94.1909 25.253 94.6317 26.5059 95.0859 27.7969C96.559 31.3803 96.559 31.3803 100.078 33.1406C100.96 33.4655 101.842 33.7903 102.75 34.125C103.664 37.0781 103.664 37.0781 103.875 39.75C102.947 39.8892 102.019 40.0284 101.062 40.1719C96.6776 40.9549 92.4367 42.0099 88.125 43.125C88.8675 41.2688 89.61 39.4125 90.375 37.5C87.7763 37.5 85.1775 37.5 82.5 37.5C83.3585 36.3166 84.217 35.1333 85.1016 33.9141C86.8958 31.4203 88.4888 28.9918 90.0234 26.3203C90.5107 25.5546 90.998 24.7889 91.5 24Z" fill="#8D9D74"></path><path d="M112.875 37.5C126.047 39.4193 139.272 47.027 150.773 53.3906C151.58 53.835 152.387 54.2794 153.218 54.7373C158.864 57.9423 164.015 61.625 169.125 65.625C168.011 66.1819 168.011 66.1819 166.875 66.75C156.929 62.3296 147.668 56.3904 138.398 50.7187C134.132 48.1522 129.876 46.1164 125.25 44.25C123.02 43.2501 120.794 42.2418 118.57 41.2266C117.493 40.7349 116.415 40.2433 115.305 39.7368C114.503 39.3699 113.701 39.003 112.875 38.625C112.875 38.2537 112.875 37.8825 112.875 37.5Z" fill="#ECEBE3"></path><path d="M82.5 33C81.375 36.375 81.375 36.375 79.125 37.5C79.125 38.6137 79.125 39.7275 79.125 40.875C78.3825 40.875 77.64 40.875 76.875 40.875C77.2462 42.7312 77.6175 44.5875 78 46.5C74.625 47.625 74.625 47.625 72.375 47.625C69.7033 53.6058 67.0648 59.5976 64.5 65.625C64.1287 65.625 63.7575 65.625 63.375 65.625C62.819 60.0648 64.1506 56.9001 66.7236 52.1646C68.3808 48.8692 69.2322 45.5712 70.125 42C70.8675 42 71.61 42 72.375 42C72.549 40.399 72.549 40.399 72.7266 38.7656C74.0104 32.9301 77.1493 32.7108 82.5 33Z" fill="#EB5049"></path><path d="M84.75 103.875C85.4925 104.618 86.235 105.36 87 106.125C85.8863 107.796 85.8863 107.796 84.75 109.5C87.3392 110.375 87.3392 110.375 90.375 110.625C92.9682 109.127 92.9682 109.127 94.875 107.25C95.9888 107.993 97.1025 108.735 98.25 109.5C100.112 109.933 101.988 110.319 103.875 110.625C103.875 110.996 103.875 111.367 103.875 111.75C93.8513 112.864 83.8275 113.978 73.5 115.125C74.2425 113.269 74.985 111.413 75.75 109.5C77.8594 108.867 77.8594 108.867 80.25 108.375C82.7585 106.149 82.7585 106.149 84.75 103.875Z" fill="#EDC04F"></path><path d="M103.875 85.875C103.504 87.7312 103.133 89.5875 102.75 91.5C104.235 91.8713 105.72 92.2425 107.25 92.625C104.719 94.9453 104.719 94.9453 101.625 97.125C99.3047 96.7734 99.3047 96.7734 97.125 96C95.6199 96.3541 94.119 96.7266 92.625 97.125C91.8825 96.7537 91.14 96.3825 90.375 96C93.4202 88.2854 93.4202 88.2854 96.3516 86.8594C99.375 85.875 99.375 85.875 103.875 85.875Z" fill="#EFC04B"></path><path d="M165.75 133.125C166.369 142.873 164.491 151.804 162.375 161.25C161.336 157.831 161.226 155.175 161.632 151.635C161.79 150.21 161.79 150.21 161.951 148.756C162.068 147.775 162.184 146.793 162.305 145.781C162.417 144.782 162.529 143.783 162.645 142.753C162.923 140.293 163.208 137.834 163.5 135.375C162.073 135.619 162.073 135.619 160.617 135.867C153.611 137.014 146.973 137.903 139.875 137.625C139.875 136.882 139.875 136.14 139.875 135.375C148.568 133.99 156.939 132.821 165.75 133.125Z" fill="#E6CB92"></path><path d="M94.875 94.875C95.6175 95.2463 96.36 95.6175 97.125 96C96.0112 97.1138 94.8975 98.2275 93.75 99.375C93.75 96 93.75 96 94.875 94.875ZM89.25 98.25C89.6213 98.9925 89.9925 99.735 90.375 100.5C91.4888 100.129 92.6025 99.7575 93.75 99.375C94.1213 100.118 94.4925 100.86 94.875 101.625C93.3984 103.312 93.3984 103.312 91.5 105C90.3862 105 89.2725 105 88.125 105C88.125 105.743 88.125 106.485 88.125 107.25C88.8675 107.25 89.61 107.25 90.375 107.25C90.375 107.993 90.375 108.735 90.375 109.5C88.1475 109.871 85.92 110.242 83.625 110.625C84.3675 108.769 85.11 106.913 85.875 105C84.8309 105.928 83.7867 106.856 82.7109 107.812C79.5469 110.625 79.5469 110.625 75.75 110.625C75.3787 111.368 75.0075 112.11 74.625 112.875C73.5112 112.504 72.3975 112.133 71.25 111.75C71.25 111.007 71.25 110.265 71.25 109.5C72.3638 109.129 73.4775 108.758 74.625 108.375C75.3675 107.632 76.11 106.89 76.875 106.125C77.6175 106.125 78.36 106.125 79.125 106.125C80.6805 105.292 82.2009 104.392 83.6953 103.453C84.4973 102.957 85.2992 102.461 86.1255 101.95C88.2803 100.622 88.2803 100.622 89.25 98.25Z" fill="#EFC253"></path><path d="M139.734 137.555C140.509 137.56 141.283 137.565 142.081 137.57C143.971 137.583 145.86 137.603 147.75 137.625C147.75 137.996 147.75 138.368 147.75 138.75C146.771 138.833 146.771 138.833 145.772 138.917C144.894 139.001 144.015 139.085 143.109 139.172C141.817 139.289 141.817 139.289 140.499 139.409C137.516 139.809 137.516 139.809 134.36 141C123.166 144.614 109.937 143.397 98.25 143.25C98.25 142.879 98.25 142.508 98.25 142.125C98.9985 142.029 99.747 141.932 100.518 141.833C103.934 141.393 107.35 140.95 110.766 140.508C111.943 140.356 113.121 140.205 114.334 140.049C121.075 139.181 121.075 139.181 127.781 138.082C131.773 137.492 135.711 137.504 139.734 137.555Z" fill="#E7C371"></path><path d="M76.875 87C79.845 87 82.815 87 85.875 87C85.875 87.3713 85.875 87.7425 85.875 88.125C83.2763 88.4963 80.6775 88.8675 78 89.25C77.6287 88.5075 77.2575 87.765 76.875 87ZM68.3057 87.9053C69.3237 87.9314 70.3417 87.9575 71.3906 87.9844C72.9264 88.0148 72.9264 88.0148 74.4932 88.0459C75.2792 88.072 76.0652 88.0981 76.875 88.125C77.6175 89.61 78.36 91.095 79.125 92.625C77.872 92.7178 76.6191 92.8106 75.3281 92.9062C73.9823 93.1847 72.6366 93.4631 71.25 93.75C69.8716 95.944 69.8716 95.944 69 98.25C66.6094 99.0938 66.6094 99.0938 64.5 99.375C64.732 98.3077 64.9641 97.2403 65.2031 96.1406C65.3423 94.9805 65.4816 93.8203 65.625 92.625C64.8825 91.8825 64.14 91.14 63.375 90.375C65.625 88.125 65.625 88.125 68.3057 87.9053Z" fill="#EFC55B"></path><path d="M83.625 96C86.4094 97.1138 86.4094 97.1138 89.25 98.25C87.559 103.511 83.7765 104.841 79.125 107.25C78.0112 107.807 78.0112 107.807 76.875 108.375C77.1562 106.266 77.1562 106.266 78 103.875C80.25 102.609 80.25 102.609 82.5 101.625C82.8713 100.882 83.2425 100.14 83.625 99.375C82.5112 99.0037 81.3975 98.6325 80.25 98.25C81.3638 98.25 82.4775 98.25 83.625 98.25C83.625 97.5075 83.625 96.765 83.625 96ZM71.25 97.125C75.0465 97.7406 76.9676 98.3118 80.25 100.5C78.6145 101.284 76.9726 102.055 75.3281 102.82C74.4145 103.251 73.5009 103.682 72.5596 104.125C71.7562 104.414 70.9528 104.703 70.125 105C69.3825 104.629 68.64 104.258 67.875 103.875C69.7312 102.39 71.5875 100.905 73.5 99.375C72.7575 98.6325 72.015 97.89 71.25 97.125ZM66.75 101.625C66.75 102.739 66.75 103.853 66.75 105C66.0075 104.629 65.265 104.258 64.5 103.875C65.2425 103.132 65.985 102.39 66.75 101.625Z" fill="#EEBE49"></path><path d="M34.125 111.75C37.0781 111.539 37.0781 111.539 39.75 111.75C38.2089 115.306 37.5123 116.242 34.125 118.5C35.2388 119.243 36.3525 119.985 37.5 120.75C30.3249 122.07 23.4339 123.332 16.125 123C16.125 122.629 16.125 122.258 16.125 121.875C17.9812 121.504 19.8375 121.133 21.75 120.75C22.1213 119.636 22.4925 118.522 22.875 117.375C23.9888 117.375 25.1025 117.375 26.25 117.375C30.448 116.044 31.6056 115.529 34.125 111.75Z" fill="#ECCC73"></path><path d="M30.75 93.75C28.5 96 28.5 96 24 96C24.3712 97.1137 24.7425 98.2275 25.125 99.375C24.3825 99.375 23.64 99.375 22.875 99.375C22.875 98.2612 22.875 97.1475 22.875 96C19.1625 96 15.45 96 11.625 96C11.973 97.3226 12.3211 98.6451 12.6797 100.008C14.3878 107.567 14.6136 115.283 15 123C12.4799 121.007 11.6874 119.938 11.0493 116.738C10.9841 115.625 10.9188 114.513 10.8516 113.367C10.7791 112.177 10.7065 110.986 10.6318 109.759C10.4517 104.794 10.4011 99.8425 10.5 94.875C17.2126 93.3833 23.9166 93.6505 30.75 93.75Z" fill="#E3CE90"></path><path d="M94.875 58.875C95.6175 59.6175 96.36 60.36 97.125 61.125C96.7538 61.8675 96.3825 62.61 96 63.375C95.2575 63.375 94.515 63.375 93.75 63.375C93.75 64.1175 93.75 64.86 93.75 65.625C90.441 66.728 88.3219 66.8807 84.8774 66.8599C83.8224 66.8562 82.7674 66.8526 81.6804 66.8489C80.5819 66.8395 79.4834 66.83 78.3516 66.8203C76.6842 66.8127 76.6842 66.8127 74.9832 66.8049C72.2387 66.7917 69.4944 66.7732 66.75 66.75C66.75 66.3787 66.75 66.0075 66.75 65.625C67.8268 65.5228 67.8268 65.5228 68.9253 65.4185C70.3197 65.2771 70.3197 65.2771 71.7422 65.1328C72.6689 65.0415 73.5955 64.9501 74.5503 64.856C76.86 64.737 76.86 64.737 78 63.375C80.2679 63.1114 82.5433 62.91 84.8203 62.7422C86.6845 62.6008 86.6845 62.6008 88.5864 62.4565C90.0287 62.3543 90.0287 62.3543 91.5 62.25C91.5 61.5075 91.5 60.765 91.5 60C92.6138 59.6287 93.7275 59.2575 94.875 58.875Z" fill="#8C2019"></path><path d="M117.375 100.5C118.5 102.75 118.5 102.75 117.375 107.25C125.171 107.807 125.171 107.807 133.125 108.375C133.125 108.746 133.125 109.117 133.125 109.5C129.236 110.076 125.345 110.633 121.453 111.188C120.367 111.348 119.281 111.509 118.162 111.675C111.097 112.671 104.257 113.086 97.125 112.875C97.125 112.504 97.125 112.133 97.125 111.75C98.7608 111.541 98.7608 111.541 100.43 111.328C101.567 111.096 102.704 110.864 103.875 110.625C104.246 109.882 104.617 109.14 105 108.375C108.76 108.291 111.529 108.301 115.125 109.5C115.287 108.224 115.45 106.948 115.617 105.633C116.25 101.625 116.25 101.625 117.375 100.5Z" fill="#EEC86E"></path><path d="M60 111.75C61.1138 111.75 62.2275 111.75 63.375 111.75C63.375 112.493 63.375 113.235 63.375 114C64.0928 113.906 64.8107 113.811 65.5503 113.714C66.4799 113.6 67.4094 113.485 68.3672 113.367C69.2939 113.25 70.2205 113.132 71.1753 113.011C71.9424 112.966 72.7096 112.921 73.5 112.875C73.8713 113.246 74.2425 113.617 74.625 114C76.7227 113.733 78.8199 113.461 80.9136 113.165C85.5601 112.668 90.2082 112.789 94.875 112.875C94.875 113.246 94.875 113.617 94.875 114C90.1649 114.57 85.4537 115.13 80.7422 115.688C79.4131 115.848 78.084 116.009 76.7146 116.175C70.3548 116.924 64.1553 117.601 57.75 117.375C58.4925 116.261 59.235 115.147 60 114C60.7425 114.371 61.485 114.742 62.25 115.125C62.25 114.382 62.25 113.64 62.25 112.875C61.5075 112.504 60.765 112.133 60 111.75Z" fill="#EECA6E"></path><path d="M11.625 96C15.3375 96 19.05 96 22.875 96C22.125 98.25 21.375 100.5 20.625 102.75C19.8825 102.75 19.14 102.75 18.375 102.75C18.375 103.493 18.375 104.235 18.375 105C16.5188 105.371 14.6625 105.742 12.75 106.125C12.3787 102.784 12.0075 99.4425 11.625 96Z" fill="#E8C462"></path><path d="M16.125 155.625C18.3525 155.625 20.58 155.625 22.875 155.625C21.7612 157.33 21.7612 157.33 20.625 159.07C17.8311 163.947 17.5609 168.299 19.0078 173.766C19.6635 176.576 19.0666 178.733 18.375 181.5C20.9737 181.871 23.5725 182.242 26.25 182.625C26.25 182.996 26.25 183.367 26.25 183.75C17.3906 182.766 17.3906 182.766 16.125 181.5C16.027 179.579 16.0046 177.654 16.0151 175.73C16.0188 174.566 16.0224 173.402 16.0261 172.203C16.0355 170.979 16.045 169.754 16.0547 168.492C16.0598 167.263 16.0648 166.034 16.0701 164.768C16.0834 161.72 16.1019 158.673 16.125 155.625Z" fill="#D7B879"></path><path d="M78 171.375C80.2581 171.698 82.5071 172.085 84.75 172.5C87.7582 172.603 90.7387 172.552 93.75 172.5C89.9541 174.706 86.4848 175.344 82.1572 175.954C80.0929 176.248 80.0929 176.248 77.9868 176.547C76.5526 176.743 75.1183 176.939 73.6406 177.141C71.5023 177.447 71.5023 177.447 69.3208 177.76C63.1562 178.622 57.235 179.371 51 179.25C54.121 177.538 56.7714 176.622 60.29 176.121C61.179 175.986 62.068 175.851 62.9839 175.712C64.847 175.445 66.7103 175.178 68.5737 174.913C69.4598 174.778 70.3459 174.643 71.2588 174.504C72.0667 174.389 72.8747 174.273 73.7071 174.155C76.0146 173.741 76.0146 173.741 78 171.375Z" fill="#CAA055"></path><path d="M100.5 61.125C101.242 61.8675 101.985 62.61 102.75 63.375C101.636 63.9319 101.636 63.9319 100.5 64.5C100.5 63.3863 100.5 62.2725 100.5 61.125ZM98.25 64.5C98.9925 64.8713 99.735 65.2425 100.5 65.625C98.0009 68.4989 96.3431 69.4311 92.625 70.125C90.8397 70.2135 89.0511 70.2463 87.2637 70.2349C86.263 70.2312 85.2624 70.2276 84.2314 70.2239C83.196 70.2145 82.1606 70.205 81.0937 70.1953C80.0409 70.1902 78.9881 70.1852 77.9033 70.1799C75.3105 70.1667 72.7178 70.1482 70.125 70.125C69.7537 69.3825 69.3825 68.64 69 67.875C69.6462 67.8527 70.2925 67.8304 70.9583 67.8074C73.9154 67.6996 76.8716 67.5765 79.8281 67.4531C80.8447 67.4183 81.8613 67.3835 82.9087 67.3477C88.4666 67.1042 92.978 66.4126 98.25 64.5Z" fill="#B7A287"></path><path d="M84.75 34.125C88.541 33.5418 91.3018 33.2948 94.6421 35.3906C96.2876 36.7664 97.8397 38.2522 99.375 39.75C98.7717 39.8892 98.1684 40.0284 97.5469 40.1719C94.3532 41.0123 91.25 42.0597 88.125 43.125C88.8675 41.2688 89.61 39.4125 90.375 37.5C87.7763 37.5 85.1775 37.5 82.5 37.5C83.2425 36.3863 83.985 35.2725 84.75 34.125Z" fill="#789254"></path><path d="M63.375 91.5C64.4888 91.8712 65.6025 92.2425 66.75 92.625C66.3787 93.7387 66.0075 94.8525 65.625 96C64.14 95.2575 62.655 94.515 61.125 93.75C61.8675 93.0075 62.61 92.265 63.375 91.5ZM60 94.875C62.4609 95.2266 62.4609 95.2266 64.5 96C64.1287 98.5987 63.7575 101.197 63.375 103.875C62.6325 103.504 61.89 103.132 61.125 102.75C59.64 104.235 58.155 105.72 56.625 107.25C55.8825 106.879 55.14 106.507 54.375 106.125C55.1175 105.011 55.86 103.897 56.625 102.75C57.3675 102.75 58.11 102.75 58.875 102.75C58.1325 101.265 57.39 99.78 56.625 98.25C58.0312 96.4922 58.0312 96.4922 60 94.875Z" fill="#F1C757"></path><path d="M88.125 29.625C88.4963 30.3675 88.8675 31.11 89.25 31.875C84.4238 32.6175 79.5975 33.36 74.625 34.125C79.4189 29.3311 81.4664 29.5017 88.125 29.625ZM72.375 35.25C73.5 37.5 73.5 37.5 73.1484 39.8203C72.375 42 72.375 42 70.125 43.125C69.3518 45.5083 69.3518 45.5083 68.8594 48.2578C68.6709 49.1874 68.4823 50.117 68.2881 51.0747C68.1518 51.7926 68.0155 52.5104 67.875 53.25C67.5038 53.25 67.1325 53.25 66.75 53.25C67.2113 40.0806 67.2113 40.0806 72.375 35.25Z" fill="#F3B7B5"></path><path d="M111.75 162.375C112.121 163.489 112.492 164.603 112.875 165.75C112.132 165.75 111.39 165.75 110.625 165.75C110.996 166.493 111.367 167.235 111.75 168C115.462 168 119.175 168 123 168C123 168.371 123 168.742 123 169.125C119.743 169.693 116.485 170.255 113.227 170.812C112.308 170.973 111.389 171.134 110.443 171.3C105.956 172.063 101.696 172.723 97.125 172.5C100.011 169.614 102.161 169.642 106.125 169.125C106.496 168.011 106.867 166.897 107.25 165.75C109.57 163.852 109.57 163.852 111.75 162.375Z" fill="#CA9A4E"></path><path d="M72.375 45.375C72.7463 45.375 73.1175 45.375 73.5 45.375C74.2425 49.4588 74.985 53.5425 75.75 57.75C74.1838 58.1329 74.1838 58.1329 72.5859 58.5234C68.4294 60.2349 67.5096 61.6465 65.625 65.625C65.2537 64.8825 64.8825 64.14 64.5 63.375C65.2954 61.4238 65.2954 61.4238 66.5391 59.1562C68.5245 55.3908 69.9884 51.701 71.25 47.625C71.6213 46.8825 71.9925 46.14 72.375 45.375Z" fill="#E23231"></path><path d="M84.75 31.875C85.4925 32.2462 86.235 32.6175 87 33C86.1995 33.7309 86.1995 33.7309 85.3828 34.4766C83.3585 36.401 83.3585 36.401 82.5 39.75C83.2425 39.75 83.985 39.75 84.75 39.75C84.75 40.4925 84.75 41.235 84.75 42C84.0075 42 83.265 42 82.5 42C82.384 42.7193 82.268 43.4386 82.1484 44.1797C81.8932 44.9454 81.638 45.7111 81.375 46.5C80.2612 46.8712 79.1475 47.2425 78 47.625C75.75 45.375 75.75 45.375 75.6094 42.4219C75.6558 41.5402 75.7022 40.6584 75.75 39.75C76.4925 39.75 77.235 39.75 78 39.75C78.3713 38.6362 78.7425 37.5225 79.125 36.375C79.8675 36.375 80.61 36.375 81.375 36.375C81.7463 35.2612 82.1175 34.1475 82.5 33C83.2425 32.6287 83.985 32.2575 84.75 31.875Z" fill="#E6403B"></path><path d="M92.625 56.625C93.3675 56.9963 94.11 57.3675 94.875 57.75C94.875 58.4925 94.875 59.235 94.875 60C93.7612 60 92.6475 60 91.5 60C91.5 60.7425 91.5 61.485 91.5 62.25C90.5385 62.3994 89.577 62.5487 88.5864 62.7026C87.3436 62.9013 86.1008 63.1 84.8203 63.3047C83.5804 63.5005 82.3405 63.6962 81.063 63.8979C78.1077 64.1833 78.1077 64.1833 76.875 65.625C75.0006 65.6707 73.1244 65.6731 71.25 65.625C71.25 64.8825 71.25 64.14 71.25 63.375C73.2128 62.5865 75.183 61.8166 77.1562 61.0547C78.2526 60.624 79.3489 60.1933 80.4785 59.7495C83.7601 58.8374 84.9718 59.0596 88.125 60C90.6535 58.4794 90.6535 58.4794 92.625 56.625Z" fill="#BE1B14"></path><path d="M144.375 53.25C153.768 54.7877 161.66 59.945 169.125 65.625C168.011 66.1819 168.011 66.1819 166.875 66.75C159.077 63.2842 151.575 58.947 144.375 54.375C144.375 54.0037 144.375 53.6325 144.375 53.25Z" fill="#EAE7DB"></path><path d="M48.6797 92.4141C52.125 92.625 52.125 92.625 54.375 94.875C50.5042 97.4555 49.0617 98.25 44.25 98.25C43.8787 98.9925 43.5075 99.735 43.125 100.5C43.125 99.7575 43.125 99.015 43.125 98.25C41.64 98.6213 40.155 98.9925 38.625 99.375C38.625 97.5188 38.625 95.6625 38.625 93.75C39.9824 93.7848 39.9824 93.7848 41.3672 93.8203C44.8567 93.7352 45.0576 92.6453 48.6797 92.4141ZM42 94.875C41.6287 95.6175 41.2575 96.36 40.875 97.125C41.6175 97.125 42.36 97.125 43.125 97.125C42.7537 96.3825 42.3825 95.64 42 94.875Z" fill="#F2C450"></path><path d="M74.625 72.375C74.625 72.7463 74.625 73.1175 74.625 73.5C73.4039 73.6494 72.1829 73.7987 70.9248 73.9526C69.2988 74.1532 67.6728 74.3539 66.0469 74.5547C64.8439 74.7015 64.8439 74.7015 63.6167 74.8513C60.0596 75.2919 56.536 75.7656 53.0039 76.3828C50.0666 76.8449 47.3583 76.9903 44.3906 76.9453C43.5118 76.9352 42.633 76.925 41.7275 76.9146C41.075 76.9015 40.4224 76.8884 39.75 76.875C39.75 76.5038 39.75 76.1325 39.75 75.75C51.5514 72.2471 62.419 72.0051 74.625 72.375Z" fill="#D6CFB2"></path><path d="M33 96C32.1562 98.1797 32.1562 98.1797 30.75 100.5C29.2583 100.907 27.7582 101.284 26.25 101.625C25.8787 102.739 25.5075 103.853 25.125 105C24.3825 103.886 23.64 102.773 22.875 101.625C21.7612 100.883 20.6475 100.14 19.5 99.375C20.985 99.0038 22.47 98.6325 24 98.25C24 97.5075 24 96.765 24 96C27.4342 94.8961 29.5658 94.8961 33 96Z" fill="#EBC155"></path><path d="M51 152.25C51 152.993 51 153.735 51 154.5C52.8562 154.871 54.7125 155.242 56.625 155.625C55.5515 156.918 54.4723 158.206 53.3906 159.492C52.7902 160.21 52.1899 160.928 51.5713 161.667C49.875 163.5 49.875 163.5 47.625 164.625C46.8825 163.882 46.14 163.14 45.375 162.375C46.1175 161.632 46.86 160.89 47.625 160.125C48.3675 160.496 49.11 160.867 49.875 161.25C49.875 159.765 49.875 158.28 49.875 156.75C49.875 156.007 49.875 155.265 49.875 154.5C48.7612 154.129 47.6475 153.758 46.5 153.375C47.625 152.25 47.625 152.25 51 152.25ZM55.5 152.25C56.6138 152.807 56.6138 152.807 57.75 153.375C56.6362 153.932 56.6362 153.932 55.5 154.5C55.5 153.757 55.5 153.015 55.5 152.25Z" fill="#E1B547"></path><path d="M103.875 85.875C103.504 87.7312 103.133 89.5875 102.75 91.5C104.235 91.8713 105.72 92.2425 107.25 92.625C104.648 94.9453 104.648 94.9453 101.625 97.125C100.511 96.7537 99.3975 96.3825 98.25 96C98.25 85.875 98.25 85.875 103.875 85.875Z" fill="#F1C148"></path><path d="M84.75 40.875C85.4925 40.875 86.235 40.875 87 40.875C87 41.9888 87 43.1025 87 44.25C88.485 44.6213 89.97 44.9925 91.5 45.375C91.5 48.345 91.5 51.315 91.5 54.375C89.2725 54.7463 87.045 55.1175 84.75 55.5C84.75 54.7575 84.75 54.015 84.75 53.25C85.8638 53.25 86.9775 53.25 88.125 53.25C87.7537 51.765 87.3825 50.28 87 48.75C87.7425 48.75 88.485 48.75 89.25 48.75C89.25 48.0075 89.25 47.265 89.25 46.5C87.765 45.7575 86.28 45.015 84.75 44.25C84.75 43.1362 84.75 42.0225 84.75 40.875Z" fill="#DC3D37"></path><path d="M39.75 111.75C41.235 112.864 42.72 113.977 44.25 115.125C43.8787 116.61 43.5075 118.095 43.125 119.625C39.0412 119.625 34.9575 119.625 30.75 119.625C32.235 118.511 33.72 117.397 35.25 116.25C36.771 114.771 38.2765 113.276 39.75 111.75Z" fill="#F0C65A"></path><path d="M82.5 33C81.375 36.375 81.375 36.375 79.125 37.5C79.125 38.6137 79.125 39.7275 79.125 40.875C76.8975 41.2462 74.67 41.6175 72.375 42C72.7266 38.7656 72.7266 38.7656 73.5 35.25C77.1314 32.8291 78.3195 32.774 82.5 33Z" fill="#F46760"></path><path d="M61.125 101.625C62.2388 102.739 63.3525 103.853 64.5 105C64.1287 106.114 63.7575 107.228 63.375 108.375C62.2612 108.375 61.1475 108.375 60 108.375C60 107.632 60 106.89 60 106.125C59.2575 105.754 58.515 105.383 57.75 105C58.4925 105 59.235 105 60 105C60.3713 103.886 60.7425 102.772 61.125 101.625ZM65.625 106.125C66.7388 106.496 67.8525 106.867 69 107.25C67.8862 107.621 66.7725 107.992 65.625 108.375C65.2537 110.231 64.8825 112.087 64.5 114C63.3862 112.515 62.2725 111.03 61.125 109.5C63.1641 107.742 63.1641 107.742 65.625 106.125Z" fill="#F0C44F"></path><path d="M98.25 40.875C98.6213 43.1025 98.9925 45.33 99.375 47.625C97.5188 48.3675 95.6625 49.11 93.75 49.875C93.5412 48.5524 93.5412 48.5524 93.3281 47.2031C92.8599 44.0919 92.8599 44.0919 90.375 42C94.4531 39.6094 94.4531 39.6094 98.25 40.875Z" fill="#8DA864"></path><path d="M56.625 109.5C57.7388 109.871 58.8525 110.242 60 110.625C58.8862 110.996 57.7725 111.367 56.625 111.75C56.625 111.007 56.625 110.265 56.625 109.5ZM49.875 111.75C50.5711 111.959 51.2672 112.168 51.9844 112.383C54.4218 113.141 54.4218 113.141 56.625 111.75C56.625 113.606 56.625 115.462 56.625 117.375C53.3826 118.456 51.3392 118.619 47.9766 118.57C46.6127 118.555 46.6127 118.555 45.2212 118.54C44.1836 118.52 44.1836 118.52 43.125 118.5C43.125 118.129 43.125 117.758 43.125 117.375C45.3525 117.375 47.58 117.375 49.875 117.375C49.875 116.632 49.875 115.89 49.875 115.125C50.6175 115.125 51.36 115.125 52.125 115.125C52.125 114.382 52.125 113.64 52.125 112.875C51.3825 112.504 50.64 112.133 49.875 111.75Z" fill="#F1CB62"></path><path d="M37.5 101.625C38.2425 101.625 38.985 101.625 39.75 101.625C40.1213 102.368 40.4925 103.11 40.875 103.875C42.7312 103.504 44.5875 103.133 46.5 102.75C44.8294 104.421 44.8294 104.421 43.125 106.125C44.2388 107.239 45.3525 108.353 46.5 109.5C46.1287 110.243 45.7575 110.985 45.375 111.75C43.1953 111.328 43.1953 111.328 40.875 110.625C40.5037 109.882 40.1325 109.14 39.75 108.375C38.6362 107.632 37.5225 106.89 36.375 106.125C36.7463 104.64 37.1175 103.155 37.5 101.625Z" fill="#F0C65D"></path><path d="M111.75 143.25C108.711 144.937 107.384 145.503 103.805 145.43C97.8714 145.524 92.6481 147.159 87 148.875C85.8862 147.761 84.7725 146.647 83.625 145.5C93.0921 143.79 102.13 142.938 111.75 143.25Z" fill="#E5BD5D"></path><path d="M111.75 103.875C111.75 104.618 111.75 105.36 111.75 106.125C112.864 106.125 113.978 106.125 115.125 106.125C115.125 107.239 115.125 108.353 115.125 109.5C114.011 109.871 112.897 110.242 111.75 110.625C111.75 109.882 111.75 109.14 111.75 108.375C111.054 108.584 110.358 108.793 109.641 109.008C107.25 109.5 107.25 109.5 105 108.375C105 109.118 105 109.86 105 110.625C104.257 110.625 103.515 110.625 102.75 110.625C102.75 109.14 102.75 107.655 102.75 106.125C106.019 104.711 108.146 103.875 111.75 103.875Z" fill="#F0C34F"></path><path d="M35.25 106.125C38.0344 107.239 38.0344 107.239 40.875 108.375C40.875 109.117 40.875 109.86 40.875 110.625C41.6175 110.996 42.36 111.367 43.125 111.75C39.6725 113.476 36.7114 112.369 33 111.75C33.9844 107.391 33.9844 107.391 35.25 106.125ZM43.125 111.75C44.2388 112.121 45.3525 112.492 46.5 112.875C45.015 113.246 43.53 113.617 42 114C42.3713 113.257 42.7425 112.515 43.125 111.75Z" fill="#ECC051"></path><path d="M82.5 37.5C85.0987 37.5 87.6975 37.5 90.375 37.5C89.6325 39.3562 88.89 41.2125 88.125 43.125C89.61 43.125 91.095 43.125 92.625 43.125C92.625 45.7237 92.625 48.3225 92.625 51C92.2537 51 91.8825 51 91.5 51C91.1287 49.1437 90.7575 47.2875 90.375 45.375C89.2612 45.0037 88.1475 44.6325 87 44.25C87 43.1362 87 42.0225 87 40.875C85.515 40.5037 84.03 40.1325 82.5 39.75C82.5 39.0075 82.5 38.265 82.5 37.5Z" fill="#8F3422"></path><path d="M83.625 102.75C84.7387 103.121 85.8525 103.492 87 103.875C86.1183 104.571 85.2366 105.267 84.3281 105.984C81.4106 108.261 81.4106 108.261 79.125 110.625C78.0112 110.625 76.8975 110.625 75.75 110.625C75.3787 111.368 75.0075 112.11 74.625 112.875C73.5112 112.504 72.3975 112.133 71.25 111.75C71.25 111.007 71.25 110.265 71.25 109.5C72.3637 109.129 73.4775 108.758 74.625 108.375C75.3675 107.632 76.11 106.89 76.875 106.125C77.6175 106.125 78.36 106.125 79.125 106.125C79.8443 105.545 80.5636 104.965 81.3047 104.367C82.0704 103.834 82.8361 103.3 83.625 102.75Z" fill="#EFC459"></path><path d="M76.875 103.875C75.7612 104.618 74.6475 105.36 73.5 106.125C72.7575 105.754 72.015 105.383 71.25 105C71.6213 106.114 71.9925 107.228 72.375 108.375C71.6325 108.375 70.89 108.375 70.125 108.375C69.7537 109.489 69.3825 110.603 69 111.75C67.8862 111.379 66.7725 111.008 65.625 110.625C65.625 107.244 67.8124 106.188 70.125 103.875C73.5 102.75 73.5 102.75 76.875 103.875Z" fill="#F0C65B"></path><path d="M40.5938 92.5547C41.4929 92.5648 42.392 92.575 43.3184 92.5855C43.9971 92.5985 44.6757 92.6116 45.375 92.625C44.6325 93.3675 43.89 94.11 43.125 94.875C39.6094 94.4531 39.6094 94.4531 36.375 93.75C36.375 95.235 36.375 96.72 36.375 98.25C34.89 98.6213 33.405 98.9925 31.875 99.375C31.5037 97.5188 31.1325 95.6625 30.75 93.75C34.1192 92.7686 37.0902 92.5032 40.5938 92.5547ZM42 94.875C42.3713 95.6175 42.7425 96.36 43.125 97.125C42.3825 96.7538 41.64 96.3825 40.875 96C41.2463 95.6288 41.6175 95.2575 42 94.875Z" fill="#EDC765"></path><path d="M103.875 44.25C109.359 49.4531 109.359 49.4531 110.625 53.25C108.397 53.25 106.17 53.25 103.875 53.25C102.976 49.5522 102.641 47.951 103.875 44.25Z" fill="#97B16E"></path><path d="M151.125 157.875C153.353 157.875 155.58 157.875 157.875 157.875C157.875 158.989 157.875 160.103 157.875 161.25C154.163 161.993 150.45 162.735 146.625 163.5C147.368 163.129 148.11 162.758 148.875 162.375C150.15 160.106 150.15 160.106 151.125 157.875Z" fill="#CF9027"></path><path d="M93.75 107.25C97.0913 108.364 100.433 109.478 103.875 110.625C103.875 110.996 103.875 111.367 103.875 111.75C97.1925 112.307 97.1925 112.307 90.375 112.875C92.625 108.375 92.625 108.375 93.75 107.25Z" fill="#EEC257"></path><path d="M31.875 108.375C32.926 111.762 33.0501 112.725 31.875 116.25C31.1325 115.879 30.39 115.508 29.625 115.125C29.2537 115.868 28.8825 116.61 28.5 117.375C26.1797 118.641 26.1797 118.641 24 119.625C25.876 115.191 28.7555 111.987 31.875 108.375Z" fill="#ECC55E"></path><path d="M69 150C69 151.114 69 152.228 69 153.375C69.7425 153.746 70.485 154.117 71.25 154.5C69.3938 155.243 67.5375 155.985 65.625 156.75C64.5 154.5 64.5 154.5 63.375 151.125C64.5 150 64.5 150 69 150ZM61.125 154.5C63.375 155.625 63.375 155.625 63.375 155.625L61.125 154.5Z" fill="#E2B64C"></path><path d="M17.25 93.75C21.705 93.75 26.16 93.75 30.75 93.75C28.5 96 28.5 96 24 96C24.3713 97.1138 24.7425 98.2275 25.125 99.375C24.3825 99.375 23.64 99.375 22.875 99.375C22.875 98.2612 22.875 97.1475 22.875 96C21.0188 96 19.1625 96 17.25 96C17.25 95.2575 17.25 94.515 17.25 93.75Z" fill="#EACC80"></path><path d="M67.875 49.875C68.2463 49.875 68.6175 49.875 69 49.875C69.6363 56.2381 67.5532 60.2547 64.5 65.625C64.1288 65.625 63.7575 65.625 63.375 65.625C62.7387 59.2619 64.8219 55.2453 67.875 49.875Z" fill="#DB746D"></path><path d="M105 108.375C107.228 108.375 109.455 108.375 111.75 108.375C111.75 109.118 111.75 109.86 111.75 110.625C110.636 110.625 109.522 110.625 108.375 110.625C108.375 111.368 108.375 112.11 108.375 112.875C104.663 112.875 100.95 112.875 97.125 112.875C97.125 112.504 97.125 112.133 97.125 111.75C98.7608 111.541 98.7608 111.541 100.43 111.328C102.135 110.98 102.135 110.98 103.875 110.625C104.246 109.882 104.617 109.14 105 108.375Z" fill="#F0C96E"></path><path d="M73.2188 57.3281C74.4717 57.537 74.4717 57.537 75.75 57.75C73.9237 59.6724 72.0452 61.5463 70.125 63.375C69.3825 63.375 68.64 63.375 67.875 63.375C67.875 64.1175 67.875 64.86 67.875 65.625C67.1325 65.2537 66.39 64.8825 65.625 64.5C69.3635 57.8538 69.3635 57.8538 73.2188 57.3281Z" fill="#DC2E2A"></path><path d="M80.25 57.75C80.6213 58.8637 80.9925 59.9775 81.375 61.125C78.0337 61.8675 74.6925 62.61 71.25 63.375C71.25 64.1175 71.25 64.86 71.25 65.625C70.1362 65.625 69.0225 65.625 67.875 65.625C67.875 64.8825 67.875 64.14 67.875 63.375C72.0597 60.1749 75.0456 59.6369 80.25 60C80.25 59.2575 80.25 58.515 80.25 57.75Z" fill="#CD241D"></path><path d="M102.75 54.375C102.203 57.8883 101.627 61.1203 100.5 64.5C99.7575 64.1287 99.015 63.7575 98.25 63.375C99.3955 54.375 99.3955 54.375 102.75 54.375Z" fill="#B44D43"></path><path d="M111.75 162.375C112.121 163.489 112.492 164.602 112.875 165.75C112.132 165.75 111.39 165.75 110.625 165.75C109.882 167.235 109.14 168.72 108.375 170.25C106.89 169.879 105.405 169.507 103.875 169.125C104.618 169.125 105.36 169.125 106.125 169.125C106.496 168.011 106.867 166.897 107.25 165.75C109.57 163.852 109.57 163.852 111.75 162.375Z" fill="#CA8F2D"></path><path d="M38.625 151.125C41.595 151.125 44.565 151.125 47.625 151.125C46.5 153.375 46.5 153.375 43.2656 154.781C41.5254 155.199 41.5254 155.199 39.75 155.625C38.6362 154.882 37.5225 154.14 36.375 153.375C37.1175 153.375 37.86 153.375 38.625 153.375C38.625 152.632 38.625 151.89 38.625 151.125Z" fill="#E5C472"></path><path d="M74.625 99.375C74.625 100.489 74.625 101.603 74.625 102.75C72.3975 103.493 70.17 104.235 67.875 105C72.0938 100.641 72.0938 100.641 74.625 99.375ZM66.75 101.625C66.75 102.739 66.75 103.853 66.75 105C66.0075 104.629 65.265 104.258 64.5 103.875C65.2425 103.132 65.985 102.39 66.75 101.625Z" fill="#F0C14D"></path><path d="M38.625 93.75C41.2237 93.75 43.8225 93.75 46.5 93.75C46.5 94.8638 46.5 95.9775 46.5 97.125C43.9012 97.8675 41.3025 98.61 38.625 99.375C38.625 97.5188 38.625 95.6625 38.625 93.75ZM42 94.875C41.6287 95.6175 41.2575 96.36 40.875 97.125C41.6175 97.125 42.36 97.125 43.125 97.125C42.7537 96.3825 42.3825 95.64 42 94.875Z" fill="#F1C451"></path><path d="M69 54.375C70.1137 54.7463 71.2275 55.1175 72.375 55.5C70.1475 58.8413 67.92 62.1825 65.625 65.625C65.2537 64.8825 64.8825 64.14 64.5 63.375C65.3745 61.1865 65.3745 61.1865 66.6797 58.7344C67.1075 57.9194 67.5353 57.1044 67.9761 56.2646C68.314 55.6411 68.6519 55.0175 69 54.375Z" fill="#DB3935"></path><path d="M71.25 38.625C71.6213 39.7388 71.9925 40.8525 72.375 42C71.2613 42.5569 71.2613 42.5569 70.125 43.125C69.3518 45.5083 69.3518 45.5083 68.8594 48.2578C68.6709 49.1874 68.4823 50.117 68.2881 51.0747C68.1518 51.7926 68.0155 52.5104 67.875 53.25C67.5038 53.25 67.1325 53.25 66.75 53.25C66.8478 51.2333 66.9695 49.2178 67.1016 47.2031C67.1995 45.5194 67.1995 45.5194 67.2993 43.8018C67.4893 42.8359 67.6793 41.8701 67.875 40.875C68.9888 40.1325 70.1025 39.39 71.25 38.625Z" fill="#E5908A"></path><path d="M53.25 94.875C52.125 98.25 52.125 98.25 49.875 100.5C46.5 101.625 46.5 101.625 44.25 100.5C44.25 99.7575 44.25 99.015 44.25 98.25C45.1549 97.902 46.0598 97.5539 46.9922 97.1953C52.5882 94.875 52.5882 94.875 53.25 94.875Z" fill="#F5CB62"></path><path d="M43.125 98.25C43.125 98.9925 43.125 99.735 43.125 100.5C43.8675 100.871 44.61 101.242 45.375 101.625C42.5906 103.296 42.5906 103.296 39.75 105C39.0075 103.144 38.265 101.288 37.5 99.375C40.875 98.25 40.875 98.25 43.125 98.25Z" fill="#EDBE4A"></path><path d="M107.25 91.5C105.394 93.3563 103.538 95.2125 101.625 97.125C100.511 96.3825 99.3975 95.64 98.25 94.875C101.024 91.3705 102.872 91.145 107.25 91.5Z" fill="#EFBE43"></path><path d="M92.625 51C100.219 50.8594 100.219 50.8594 102.75 52.125C102.75 52.8675 102.75 53.61 102.75 54.375C99.375 55.5 99.375 55.5 95.7891 53.8828C94.7449 53.3027 93.7008 52.7227 92.625 52.125C92.625 51.7537 92.625 51.3825 92.625 51Z" fill="#9E312D"></path><path d="M82.5 36.375C91.2188 36.2344 91.2188 36.2344 93.75 37.5C93.3787 38.6137 93.0075 39.7275 92.625 40.875C91.5112 40.5037 90.3975 40.1325 89.25 39.75C89.6213 39.0075 89.9925 38.265 90.375 37.5C87.7763 37.5 85.1775 37.5 82.5 37.5C82.5 37.1287 82.5 36.7575 82.5 36.375ZM88.125 40.875C88.8675 41.6175 89.61 42.36 90.375 43.125C89.6325 43.125 88.89 43.125 88.125 43.125C88.125 42.3825 88.125 41.64 88.125 40.875Z" fill="#6A7D40"></path><path d="M34.125 111.75C35.9812 111.75 37.8375 111.75 39.75 111.75C39.0075 113.235 38.265 114.72 37.5 116.25C36.015 115.879 34.53 115.508 33 115.125C33.3713 114.011 33.7425 112.897 34.125 111.75Z" fill="#EEC865"></path><path d="M63.375 91.5C64.4887 91.8713 65.6025 92.2425 66.75 92.625C66.3787 93.7388 66.0075 94.8525 65.625 96C64.14 95.2575 62.655 94.515 61.125 93.75C61.8675 93.0075 62.61 92.265 63.375 91.5ZM60 94.875C61.485 95.6175 62.97 96.36 64.5 97.125C63.3862 97.6819 63.3862 97.6819 62.25 98.25C61.1362 97.5075 60.0225 96.765 58.875 96C59.2462 95.6287 59.6175 95.2575 60 94.875Z" fill="#F0C24B"></path><path d="M90.375 26.25C91.1175 26.25 91.86 26.25 92.625 26.25C92.9963 28.4775 93.3675 30.705 93.75 33C90.9656 31.8862 90.9656 31.8862 88.125 30.75C88.8675 29.265 89.61 27.78 90.375 26.25Z" fill="#707F55"></path><path d="M73.5 46.5C74.6138 46.8713 75.7275 47.2425 76.875 47.625C76.875 51.3375 76.875 55.05 76.875 58.875C73.8678 54.3641 73.5 51.932 73.5 46.5Z" fill="#DB382F"></path><path d="M78.2812 62.1094C79.2558 62.7359 79.2558 62.7359 80.25 63.375C76.6186 65.7959 75.4305 65.851 71.25 65.625C71.25 64.8825 71.25 64.14 71.25 63.375C75.1269 60.8827 75.1269 60.8827 78.2812 62.1094Z" fill="#BC150F"></path><path d="M83.625 43.125C86.4375 44.6719 86.4375 44.6719 89.25 46.5C89.25 47.2425 89.25 47.985 89.25 48.75C87.765 49.1213 86.28 49.4925 84.75 49.875C84.3787 47.6475 84.0075 45.42 83.625 43.125Z" fill="#DC403B"></path><path d="M84.75 40.875C85.4925 40.875 86.235 40.875 87 40.875C87 41.9887 87 43.1025 87 44.25C88.485 44.6212 89.97 44.9925 91.5 45.375C91.1287 46.4887 90.7575 47.6025 90.375 48.75C87.5625 46.7109 87.5625 46.7109 84.75 44.25C84.75 43.1362 84.75 42.0225 84.75 40.875Z" fill="#CA3333"></path><path d="M74.625 34.125C75.3675 34.4962 76.11 34.8675 76.875 35.25C76.5037 37.1062 76.1325 38.9625 75.75 40.875C74.6362 41.2462 73.5225 41.6175 72.375 42C73.3594 35.3906 73.3594 35.3906 74.625 34.125Z" fill="#F4807D"></path><path d="M47.625 151.125C50.9663 151.125 54.3075 151.125 57.75 151.125C54.375 154.5 54.375 154.5 51 154.5C51 153.757 51 153.015 51 152.25C49.8862 151.879 48.7725 151.508 47.625 151.125Z" fill="#E5BE59"></path><path d="M35.25 98.25C35.6213 98.25 35.9925 98.25 36.375 98.25C36.375 100.106 36.375 101.962 36.375 103.875C35.2612 104.246 34.1475 104.617 33 105C32.6287 103.886 32.2575 102.772 31.875 101.625C32.9888 101.254 34.1025 100.883 35.25 100.5C35.25 99.7575 35.25 99.015 35.25 98.25Z" fill="#EDC356"></path><path d="M11.625 96C13.4812 96 15.3375 96 17.25 96C16.1362 97.6706 16.1362 97.6706 15 99.375C14.2575 99.375 13.515 99.375 12.75 99.375C12.3787 100.489 12.0075 101.603 11.625 102.75C11.625 100.522 11.625 98.295 11.625 96Z" fill="#E3C36B"></path><path d="M81.375 51C82.1175 51.3713 82.86 51.7425 83.625 52.125C83.625 53.61 83.625 55.095 83.625 56.625C81.7688 56.2537 79.9125 55.8825 78 55.5C79.1138 54.015 80.2275 52.53 81.375 51Z" fill="#D8312B"></path><path d="M82.5 37.5C85.0987 37.5 87.6975 37.5 90.375 37.5C90.375 38.2425 90.375 38.985 90.375 39.75C85.0312 41.0156 85.0312 41.0156 82.5 39.75C82.5 39.0075 82.5 38.265 82.5 37.5Z" fill="#AD3127"></path><path d="M102.75 36.375C104.978 36.375 107.205 36.375 109.5 36.375C109.5 37.4888 109.5 38.6025 109.5 39.75C106.159 39.1931 106.159 39.1931 102.75 38.625C102.75 37.8825 102.75 37.14 102.75 36.375Z" fill="#C3BEA9"></path><path d="M20.625 117.375C21.3675 117.746 22.11 118.117 22.875 118.5C22.875 119.614 22.875 120.728 22.875 121.875C20.6475 121.875 18.42 121.875 16.125 121.875C17.61 120.39 19.095 118.905 20.625 117.375Z" fill="#EBC865"></path><path d="M48.75 111.75C49.8638 112.121 50.9775 112.492 52.125 112.875C52.125 113.618 52.125 114.36 52.125 115.125C51.3825 115.125 50.64 115.125 49.875 115.125C49.875 115.868 49.875 116.61 49.875 117.375C48.7612 117.004 47.6475 116.633 46.5 116.25C47.2425 114.765 47.985 113.28 48.75 111.75Z" fill="#F1C758"></path><path d="M57.75 111.75C59.9775 112.307 59.9775 112.307 62.25 112.875C62.25 113.618 62.25 114.36 62.25 115.125C60.3938 115.868 58.5375 116.61 56.625 117.375C56.9963 115.519 57.3675 113.663 57.75 111.75Z" fill="#EFC450"></path><path d="M65.625 110.625C67.4812 110.625 69.3375 110.625 71.25 110.625C71.25 111.739 71.25 112.853 71.25 114C69.0225 114 66.795 114 64.5 114C64.8713 112.886 65.2425 111.772 65.625 110.625Z" fill="#EFC148"></path><path d="M75.75 106.125C76.4925 107.239 77.235 108.353 78 109.5C76.8862 110.614 75.7725 111.728 74.625 112.875C73.5112 112.504 72.3975 112.133 71.25 111.75C71.25 111.007 71.25 110.265 71.25 109.5C72.3638 109.129 73.4775 108.758 74.625 108.375C74.9963 107.632 75.3675 106.89 75.75 106.125Z" fill="#EFC458"></path><path d="M96 58.875C96.7425 58.875 97.485 58.875 98.25 58.875C98.6213 60.36 98.9925 61.845 99.375 63.375C97.5188 64.1175 95.6625 64.86 93.75 65.625C93.75 64.8825 93.75 64.14 93.75 63.375C94.4925 63.375 95.235 63.375 96 63.375C96 61.89 96 60.405 96 58.875Z" fill="#9E3027"></path><path d="M83.625 57.75C86.2237 57.75 88.8225 57.75 91.5 57.75C90.0937 59.5078 90.0937 59.5078 88.125 61.125C85.6641 60.7734 85.6641 60.7734 83.625 60C83.625 59.2575 83.625 58.515 83.625 57.75Z" fill="#CA261D"></path><path d="M90.375 107.25C90.375 107.993 90.375 108.735 90.375 109.5C88.1475 109.871 85.92 110.243 83.625 110.625C85.1613 106.016 85.7662 105.714 90.375 107.25Z" fill="#EDC35B"></path><path d="M54.375 100.5C55.86 100.5 57.345 100.5 58.875 100.5C58.875 101.243 58.875 101.985 58.875 102.75C58.1325 102.75 57.39 102.75 56.625 102.75C56.625 103.493 56.625 104.235 56.625 105C55.8825 105 55.14 105 54.375 105C54.375 103.515 54.375 102.03 54.375 100.5Z" fill="#F2C346"></path><path d="M90.375 30.75C91.4887 31.8638 92.6025 32.9775 93.75 34.125C91.1512 34.125 88.5525 34.125 85.875 34.125C87 31.875 87 31.875 90.375 30.75Z" fill="#6B713D"></path><path d="M46.5 160.125C48.3562 160.125 50.2125 160.125 52.125 160.125C50.64 161.61 49.155 163.095 47.625 164.625C46.8825 163.882 46.14 163.14 45.375 162.375C45.7463 161.632 46.1175 160.89 46.5 160.125Z" fill="#DCB453"></path><path d="M64.5 108.375C64.8713 109.86 65.2425 111.345 65.625 112.875C64.5112 113.432 64.5112 113.432 63.375 114C62.6325 112.515 61.89 111.03 61.125 109.5C62.2388 109.129 63.3525 108.758 64.5 108.375Z" fill="#F0C450"></path><path d="M70.125 106.125C70.8675 106.868 71.61 107.61 72.375 108.375C71.6325 108.375 70.89 108.375 70.125 108.375C69.7537 109.489 69.3825 110.603 69 111.75C67.8862 111.007 66.7725 110.265 65.625 109.5C67.11 108.386 68.595 107.272 70.125 106.125Z" fill="#F2C85C"></path><path d="M144.375 82.5C145.86 82.5 147.345 82.5 148.875 82.5C148.504 83.6138 148.133 84.7275 147.75 85.875C146.636 85.875 145.522 85.875 144.375 85.875C144.375 84.7612 144.375 83.6475 144.375 82.5Z" fill="#E1A13B"></path><path d="M75.75 49.875C76.1213 50.6175 76.4925 51.36 76.875 52.125C77.9888 51.7537 79.1025 51.3825 80.25 51C79.5075 52.8562 78.765 54.7125 78 56.625C75.75 54.375 75.75 54.375 75.75 49.875Z" fill="#E43335"></path><path d="M98.25 35.25C99.735 35.25 101.22 35.25 102.75 35.25C103.121 36.735 103.492 38.22 103.875 39.75C99.5156 37.7812 99.5156 37.7812 98.25 35.25Z" fill="#73874D"></path><path d="M17.25 156.75C18.3638 157.121 19.4775 157.492 20.625 157.875C19.8825 159.731 19.14 161.587 18.375 163.5C18.0037 163.5 17.6325 163.5 17.25 163.5C17.25 161.272 17.25 159.045 17.25 156.75Z" fill="#DCBB60"></path><path d="M30.75 103.875C32.235 104.246 33.72 104.617 35.25 105C35.25 105.743 35.25 106.485 35.25 107.25C33.765 107.25 32.28 107.25 30.75 107.25C30.75 106.136 30.75 105.022 30.75 103.875Z" fill="#EEC968"></path><path d="M81.375 102.75C79.4062 107.109 79.4062 107.109 76.875 108.375C78.1452 102.75 78.1452 102.75 81.375 102.75Z" fill="#ECBE4B"></path><path d="M94.875 58.875C95.6175 59.6175 96.36 60.36 97.125 61.125C96.7537 61.8675 96.3825 62.61 96 63.375C94.515 62.6325 93.03 61.89 91.5 61.125C92.6138 60.3825 93.7275 59.64 94.875 58.875Z" fill="#A72018"></path><path d="M92.625 56.625C93.3675 56.9963 94.11 57.3675 94.875 57.75C94.875 58.4925 94.875 59.235 94.875 60C92.6475 60.3713 90.42 60.7425 88.125 61.125C89.61 59.64 91.095 58.155 92.625 56.625Z" fill="#BE1F1C"></path><path d="M78 171.375C79.1138 171.746 80.2275 172.117 81.375 172.5C81.375 173.243 81.375 173.985 81.375 174.75C79.5188 174.75 77.6625 174.75 75.75 174.75C76.4925 173.636 77.235 172.522 78 171.375Z" fill="#C48D30"></path><path d="M62.25 173.625C62.9925 173.996 63.735 174.367 64.5 174.75C64.5 175.493 64.5 176.235 64.5 177C62.6438 177 60.7875 177 58.875 177C59.9888 175.886 61.1025 174.772 62.25 173.625Z" fill="#C49032"></path><path d="M107.25 92.625C108.364 92.9963 109.478 93.3675 110.625 93.75C109.882 94.4925 109.14 95.235 108.375 96C107.261 95.6287 106.147 95.2575 105 94.875C105.743 94.1325 106.485 93.39 107.25 92.625Z" fill="#EFC256"></path><path d="M91.5 61.125C92.2425 61.4963 92.985 61.8675 93.75 62.25C93.75 62.9925 93.75 63.735 93.75 64.5C91.5225 64.5 89.295 64.5 87 64.5C88.485 63.3862 89.97 62.2725 91.5 61.125Z" fill="#A01410"></path><path d="M89.25 54.375C90.735 55.1175 92.22 55.86 93.75 56.625C92.265 56.9963 90.78 57.3675 89.25 57.75C89.25 56.6362 89.25 55.5225 89.25 54.375Z" fill="#D62523"></path><path d="M110.625 39.75C110.254 40.8638 109.883 41.9775 109.5 43.125C107.644 42.7537 105.788 42.3825 103.875 42C108.094 39.75 108.094 39.75 110.625 39.75Z" fill="#93AA6B"></path><path d="M71.25 38.625C71.6213 39.7388 71.9925 40.8525 72.375 42C70.89 42.3713 69.405 42.7425 67.875 43.125C69 39.75 69 39.75 71.25 38.625Z" fill="#F2B0AC"></path></svg>