<svg xmlns="http://www.w3.org/2000/svg" width="192" height="192" viewBox="0 0 192 192" fill="none"><path d="M66 40.5714C52.2857 44.5714 10 71.4286 10 71.4286L168.857 58.2857C168.857 58.2857 152.857 48 136.857 40.5714C120.857 33.1429 111.714 27.4286 105.429 26.8571L102 26.2857L103.143 30.2857H106.571L110 32.3211L108.857 35.4286L103.714 36L108.857 41.7143L111.143 45.1429H106.571L103.714 45.7143L102.571 50.8571L99.1429 55.4286L94.5714 58.8571L83.7143 59.4286H66.5714L63.1429 57.7143V52L66 47.4286V40.5714Z" fill="#C3BBA7"></path><path d="M175.143 152.571C179.143 149.714 182 108 182 108V80.5714C182 72.5714 177.429 67.4286 177.429 67.4286L168.857 58.2857L10 71.4286L10.9617 87.4286C10.9617 87.4286 152.857 71.4286 158 73.7143C163.143 76 168.286 77.1429 168.857 84.5714C169.429 92 170 92 168.857 97.1429C167.714 102.286 12.6792 116 12.6792 116L14.7057 149.714L164.857 127.429L161.429 155.393C169.382 154.063 174.46 153.059 175.143 152.571Z" fill="#E9DDBC"></path><path d="M158 73.7143C152.857 71.4286 10.9617 87.4286 10.9617 87.4286L12.6792 116C12.6792 116 167.714 102.286 168.857 97.1429C170 92 169.429 92 168.857 84.5714C168.286 77.1429 163.143 76 158 73.7143Z" fill="#E6C365"></path><path d="M14.7057 149.714L16.2857 176C16.2857 176 122.788 161.852 161.429 155.393L164.857 127.429L14.7057 149.714Z" fill="#E6C365"></path><path d="M66 40.5714V47.4286L63.1429 52V57.7143L66.5714 59.4286H83.7143L94.5714 58.8571L99.1429 55.4286L102.571 50.8571L103.714 45.7143L99.1429 41.7143L93.4286 43.4286L91.7143 42.2857V36L87.7143 35.4286V32.3211L89.4286 29.7143H82.5714L84.8571 25.7143L89.4286 24V21.4286L82.5714 21.7143L77.4286 23.4286L71.1429 29.7143L66.5714 35.4286L66 40.5714Z" fill="#CF4C41"></path><path d="M99.1429 41.7143L103.714 45.7143L106.571 45.1429H111.143L108.857 41.7143L103.714 36L108.857 35.4286L110 32.3211L106.571 30.2857H103.143L102 26.2857L98 26.8571L96.8571 25.7143L94 21.7143V18.2857L91.7143 16L89.4286 18.8571V21.4286V24L84.8571 25.7143L82.5714 29.7143H89.4286L87.7143 32.3211V35.4286L91.7143 36V42.2857L93.4286 43.4286L99.1429 41.7143Z" fill="#8C9F6A"></path><path d="M66 40.5714C52.2857 44.5714 10 71.4286 10 71.4286M66 40.5714V47.4286L63.1429 52V57.7143L66.5714 59.4286H83.7143L94.5714 58.8571L99.1429 55.4286L102.571 50.8571L103.714 45.7143M66 40.5714L66.5714 35.4286L71.1429 29.7143L77.4286 23.4286L82.5714 21.7143L89.4286 21.4286M10 71.4286L168.857 58.2857M10 71.4286L10.9617 87.4286M182 108C182 108 179.143 149.714 175.143 152.571C174.46 153.059 169.382 154.063 161.429 155.393M182 108C182 108 182 88.5714 182 80.5714M182 108V80.5714M182 80.5714C182 72.5714 177.429 67.4286 177.429 67.4286L168.857 58.2857M168.857 58.2857C168.857 58.2857 152.857 48 136.857 40.5714C120.857 33.1429 111.714 27.4286 105.429 26.8571L102 26.2857M14.7057 149.714L16.2857 176C16.2857 176 122.788 161.852 161.429 155.393M14.7057 149.714L164.857 127.429L161.429 155.393M14.7057 149.714L12.6792 116M10.9617 87.4286C10.9617 87.4286 152.857 71.4286 158 73.7143C163.143 76 168.286 77.1429 168.857 84.5714C169.429 92 170 92 168.857 97.1429C167.714 102.286 12.6792 116 12.6792 116M10.9617 87.4286L12.6792 116M103.714 45.7143L99.1429 41.7143L93.4286 43.4286L91.7143 42.2857V36L87.7143 35.4286V32.3211L89.4286 29.7143H82.5714L84.8571 25.7143L89.4286 24V21.4286M103.714 45.7143L106.571 45.1429H111.143L108.857 41.7143L103.714 36L108.857 35.4286L110 32.3211L106.571 30.2857H103.143L102 26.2857M102 26.2857L98 26.8571L96.8571 25.7143L94 21.7143V18.2857L91.7143 16L89.4286 18.8571V21.4286" stroke="black"></path></svg>