<?xml version="1.0" encoding="UTF-8" standalone="no"?>
<!DOCTYPE svg PUBLIC "-//W3C//DTD SVG 1.1//EN" "http://www.w3.org/Graphics/SVG/1.1/DTD/svg11.dtd">
<!-- Created with Vectornator (http://vectornator.io/) -->
<svg height="210.0mm" stroke-miterlimit="10" style="fill-rule:nonzero;clip-rule:evenodd;stroke-linecap:round;stroke-linejoin:round;" version="1.1" viewBox="0 0 841.995 595.35" width="297.0mm" xml:space="preserve" xmlns="http://www.w3.org/2000/svg" xmlns:xlink="http://www.w3.org/1999/xlink">
<defs/>
<g id="Layer-1">
<path d="M261.31 252.9C325.753-4.87122-14.9232 275.763 56.0193 425.531C94.131 505.989 191.836 383.912 214.653 355.545C231.15 335.035 282.966 288.67 256.644 288.67C243.735 288.67 194.001 384.1 217.763 395.981C267.906 421.052 292.582 309.762 335.961 321.33C360.519 327.879 332.789 389.31 370.176 392.871C412.732 396.924 442.942 338.438 485.264 338.438C501.604 338.438 514.024 388.721 539.697 394.426C546.782 396 554.444 396.247 561.47 394.426C592.175 386.465 601.758 352.761 633.011 344.659C692.344 329.276 722.957 382.89 796.31 346.214" fill="none" opacity="1" stroke="#000000" stroke-linecap="round" stroke-linejoin="round" stroke-width="19.7969"/>
<path d="M580.768 238.654C595.031 251.134 586.389 245.111 607.762 255.085" fill="none" opacity="1" stroke="#000000" stroke-linecap="round" stroke-linejoin="round" stroke-width="19.7969"/>
</g>
</svg>
